<svg width="628" height="628" viewBox="0 0 628 628" fill="none" xmlns="http://www.w3.org/2000/svg">
<rect x="30" y="455" width="358" height="479" rx="16" transform="rotate(-90 30 455)" fill="white" stroke="#05060F" stroke-width="8"/>
<path d="M33 108C33 101.925 37.9249 97 44 97H494C500.075 97 505 101.925 505 108V173H33V108Z" fill="#05060F"/>
<rect x="33" y="169" width="472" height="8" fill="#05060F"/>
<rect x="69.7285" y="367.294" width="119.453" height="8.53235" rx="4.26617" fill="#05060F"/>
<rect x="69.7285" y="390.758" width="100.255" height="8.53235" rx="4.26617" fill="#05060F"/>
<rect x="73.7285" y="226.244" width="111.453" height="111.453" rx="12" fill="#41CC4F" stroke="#05060F" stroke-width="8"/>
<rect x="351.295" y="367.294" width="119.453" height="8.53235" rx="4.26617" fill="#05060F"/>
<rect x="351.295" y="390.758" width="100.255" height="8.53235" rx="4.26617" fill="#05060F"/>
<rect x="355.295" y="226.244" width="111.453" height="111.453" rx="12" fill="#7657FF" stroke="#05060F" stroke-width="8"/>
<rect x="210.512" y="367.294" width="119.453" height="8.53235" rx="4.26617" fill="#05060F"/>
<rect x="210.512" y="390.758" width="100.255" height="8.53235" rx="4.26617" fill="#05060F"/>
<rect x="214.512" y="226.244" width="111.453" height="111.453" rx="12" fill="#F8DB46" stroke="#05060F" stroke-width="8"/>
<rect x="274" y="532" width="259" height="325" rx="16" transform="rotate(-90 274 532)" fill="#FF854D" stroke="#05060F" stroke-width="8"/>
<path d="M398.251 364.25C398.251 371.292 392.542 377 385.501 377C378.459 377 372.751 371.292 372.751 364.25C372.751 357.208 378.459 351.5 385.501 351.5C392.542 351.5 398.251 357.208 398.251 364.25Z" fill="white"/>
<path fill-rule="evenodd" clip-rule="evenodd" d="M466.641 376.853C461.721 368.418 449.534 368.418 444.614 376.853L426.439 408.01L418.689 395.327C413.717 387.192 401.902 387.192 396.93 395.327L373.234 434.101C368.042 442.597 374.157 453.5 384.114 453.5L423.751 453.5L489.153 453.5C498.994 453.5 505.125 442.825 500.166 434.326L466.641 376.853Z" fill="white"/>
<path d="M398.251 364.25C398.251 371.292 392.542 377 385.501 377C378.459 377 372.751 371.292 372.751 364.25C372.751 357.208 378.459 351.5 385.501 351.5C392.542 351.5 398.251 357.208 398.251 364.25Z" stroke="#05060F" stroke-width="8"/>
<path fill-rule="evenodd" clip-rule="evenodd" d="M466.641 376.853C461.721 368.418 449.534 368.418 444.614 376.853L426.439 408.01L418.689 395.327C413.717 387.192 401.902 387.192 396.93 395.327L373.234 434.101C368.042 442.597 374.157 453.5 384.114 453.5L423.751 453.5L489.153 453.5C498.994 453.5 505.125 442.825 500.166 434.326L466.641 376.853Z" stroke="#05060F" stroke-width="8"/>
<ellipse cx="82.5" cy="139" rx="12.5" ry="13" fill="#FA5050"/>
<circle cx="125" cy="139" r="13" fill="#F8DB46"/>
<circle cx="168" cy="139" r="13" fill="#41CC4F"/>
</svg>
